<?xml version="1.0" standalone="no"?>
<!DOCTYPE svg PUBLIC "-//W3C//DTD SVG 20010904//EN"
 "http://www.w3.org/TR/2001/REC-SVG-20010904/DTD/svg10.dtd">
<svg version="1.0" xmlns="http://www.w3.org/2000/svg"
 width="200.000000pt" height="200.000000pt" viewBox="0 0 200.000000 200.000000"
 preserveAspectRatio="xMidYMid meet">
<metadata>
Created by potrace 1.11, written by Peter Selinger 2001-2013
</metadata>
<g transform="translate(0.000000,200.000000) scale(0.100000,-0.100000)"
fill="#000000" stroke="none">
<path d="M890 1989 c-250 -49 -426 -265 -435 -533 -3 -109 26 -194 128 -381
90 -165 106 -211 112 -325 3 -62 9 -88 20 -96 19 -14 107 -7 117 9 11 19 -12
37 -48 37 -34 0 -34 1 -36 48 -3 104 -24 166 -124 358 -106 206 -125 263 -120
367 18 362 405 582 733 416 181 -92 291 -312 253 -505 -15 -81 -45 -152 -106
-261 -86 -152 -115 -223 -133 -328 -1 -3 -1 -25 -1 -50 0 -45 0 -45 -35 -45
-37 0 -57 -22 -38 -41 15 -15 89 -19 107 -6 12 9 17 36 20 97 6 104 22 156 89
280 138 255 157 312 153 453 -8 226 -153 421 -366 488 -73 23 -218 32 -290 18z"/>
<path d="M965 1690 c-16 -4 -64 -5 -105 -3 -82 5 -123 -11 -154 -59 -40 -61
-29 -112 72 -343 91 -208 111 -285 127 -500 4 -44 8 -86 11 -93 7 -22 24 -2
19 21 -2 12 -7 60 -9 107 -12 205 -38 300 -143 525 -36 76 -68 158 -71 182 -9
79 31 130 106 138 67 7 72 1 46 -52 -24 -47 -24 -85 0 -111 21 -21 65 -24 96
-5 25 15 30 24 30 58 0 23 -8 53 -20 70 -11 17 -20 32 -20 36 0 7 79 11 90 4
6 -4 2 -18 -10 -35 -42 -59 -20 -139 41 -142 48 -2 57 2 73 35 17 37 8 95 -19
117 -26 21 -17 30 30 30 81 0 128 -40 134 -113 3 -46 -18 -112 -74 -226 -52
-105 -70 -158 -96 -271 -22 -96 -38 -382 -21 -365 5 6 13 46 17 90 4 44 8 96
10 115 11 119 18 156 44 238 17 50 56 151 88 224 87 199 80 270 -31 318 -43
19 -54 20 -94 10 -24 -6 -57 -8 -71 -5 -50 11 -66 11 -96 5z m-20 -74 c25 -38
27 -84 3 -100 -34 -24 -78 4 -78 50 0 22 35 74 50 74 5 0 17 -11 25 -24z m170
-11 c27 -48 13 -89 -32 -93 -53 -5 -66 44 -27 106 20 31 38 28 59 -13z"/>
<path d="M739 544 c-15 -18 -4 -45 20 -51 15 -4 18 -14 18 -55 0 -43 -3 -51
-23 -59 -31 -11 -31 -43 1 -57 21 -10 25 -18 23 -53 -1 -32 -6 -43 -25 -52
-26 -12 -31 -42 -7 -51 9 -3 127 -6 264 -6 245 0 249 0 255 21 5 14 2 25 -6
30 -8 5 -102 8 -210 7 -107 -1 -200 1 -206 5 -5 3 -10 27 -10 52 0 52 -9 49
147 46 57 -1 91 2 103 11 23 17 13 48 -17 49 -11 0 -68 1 -126 2 l-105 2 -1
52 c-1 36 3 53 12 57 8 3 101 5 207 4 106 -1 198 1 205 6 13 8 17 45 5 47 -5
1 -122 2 -261 4 -200 2 -254 -1 -263 -11z"/>
<path d="M825 60 c-8 -13 90 -49 146 -53 90 -5 209 25 209 54 0 12 -347 12
-355 -1z"/>
</g>
</svg>
